<svg xmlns="http://www.w3.org/2000/svg" viewBox="0 0 60 40" role="img" aria-label="United States flag">
  <rect width="60" height="40" fill="#b22234"/>
  <g fill="#fff">
    <rect y="3.0769" width="60" height="3.0769"/>
    <rect y="9.2308" width="60" height="3.0769"/>
    <rect y="15.3846" width="60" height="3.0769"/>
    <rect y="21.5385" width="60" height="3.0769"/>
    <rect y="27.6923" width="60" height="3.0769"/>
    <rect y="33.8462" width="60" height="3.0769"/>
  </g>
  <rect width="26" height="21.5385" fill="#3c3b6e"/>
  <g fill="#fff" opacity="0.9">
    <circle cx="4" cy="4" r="1"/>
    <circle cx="9" cy="4" r="1"/>
    <circle cx="14" cy="4" r="1"/>
    <circle cx="19" cy="4" r="1"/>
    <circle cx="24" cy="4" r="1"/>
    <circle cx="6.5" cy="7" r="1"/>
    <circle cx="11.5" cy="7" r="1"/>
    <circle cx="16.5" cy="7" r="1"/>
    <circle cx="21.5" cy="7" r="1"/>
    <circle cx="4" cy="10" r="1"/>
    <circle cx="9" cy="10" r="1"/>
    <circle cx="14" cy="10" r="1"/>
    <circle cx="19" cy="10" r="1"/>
    <circle cx="24" cy="10" r="1"/>
  </g>
</svg>
